<?xml version="1.0" encoding="UTF-8" standalone="no"?>
<!-- Created with Inkscape (http://www.inkscape.org/) -->

<svg
   xmlns:dc="http://purl.org/dc/elements/1.1/"
   xmlns:cc="http://creativecommons.org/ns#"
   xmlns:rdf="http://www.w3.org/1999/02/22-rdf-syntax-ns#"
   xmlns:svg="http://www.w3.org/2000/svg"
   xmlns="http://www.w3.org/2000/svg"
   xmlns:xlink="http://www.w3.org/1999/xlink"
   xmlns:sodipodi="http://sodipodi.sourceforge.net/DTD/sodipodi-0.dtd"
   xmlns:inkscape="http://www.inkscape.org/namespaces/inkscape"
   width="820"
   height="650"
   id="svg2"
   version="1.1"
   inkscape:version="0.47 r22583"
   sodipodi:docname="icon-folder.red.videos.svg">
  <defs
     id="defs4">
    <inkscape:path-effect
       effect="spiro"
       id="path-effect4056"
       is_visible="true" />
    <linearGradient
       id="linearGradient3859">
      <stop
         style="stop-color:#000000;stop-opacity:1"
         offset="0"
         id="stop3861" />
      <stop
         style="stop-color:#000000;stop-opacity:0;"
         offset="1"
         id="stop3863" />
    </linearGradient>
    <inkscape:path-effect
       effect="spiro"
       id="path-effect3856"
       is_visible="true" />
    <inkscape:path-effect
       effect="spiro"
       id="path-effect3803"
       is_visible="true" />
    <linearGradient
       id="linearGradient3787">
      <stop
         id="stop3789"
         offset="0"
         style="stop-color:#ffffff;stop-opacity:0" />
      <stop
         id="stop3791"
         offset="1"
         style="stop-color:#ffffff;stop-opacity:1" />
    </linearGradient>
    <inkscape:path-effect
       effect="spiro"
       id="path-effect3774"
       is_visible="true" />
    <inkscape:path-effect
       effect="spiro"
       id="path-effect3757"
       is_visible="true" />
    <linearGradient
       id="linearGradient3741">
      <stop
         id="stop3743"
         offset="0"
         style="stop-color:#4d4d4d;stop-opacity:1" />
      <stop
         style="stop-color:#ffffff;stop-opacity:1"
         offset="0.16250613"
         id="stop3852" />
      <stop
         style="stop-color:#000000;stop-opacity:1"
         offset="0.32095161"
         id="stop3745" />
      <stop
         style="stop-color:#ffffff;stop-opacity:1"
         offset="0.5234887"
         id="stop3747" />
      <stop
         style="stop-color:#000000;stop-opacity:1"
         offset="0.74877983"
         id="stop3749" />
      <stop
         style="stop-color:#ffffff;stop-opacity:1"
         offset="0.92939579"
         id="stop3751" />
      <stop
         id="stop3753"
         offset="1"
         style="stop-color:#000000;stop-opacity:1" />
    </linearGradient>
    <linearGradient
       id="linearGradient3735"
       inkscape:collect="always">
      <stop
         id="stop3737"
         offset="0"
         style="stop-color:#2b0000;stop-opacity:1" />
      <stop
         id="stop3739"
         offset="1"
         style="stop-color:#ff2a2a;stop-opacity:1" />
    </linearGradient>
    <linearGradient
       id="linearGradient3697">
      <stop
         style="stop-color:#000000;stop-opacity:1"
         offset="0"
         id="stop3699" />
      <stop
         id="stop3701"
         offset="0.11878239"
         style="stop-color:#ffffff;stop-opacity:1" />
      <stop
         id="stop3703"
         offset="0.23756479"
         style="stop-color:#ffffff;stop-opacity:1" />
      <stop
         id="stop3705"
         offset="0.47315475"
         style="stop-color:#000000;stop-opacity:1" />
      <stop
         id="stop3707"
         offset="0.73500365"
         style="stop-color:#ffffff;stop-opacity:1" />
      <stop
         style="stop-color:#000000;stop-opacity:1"
         offset="1"
         id="stop3709" />
    </linearGradient>
    <linearGradient
       id="linearGradient3677">
      <stop
         id="stop3679"
         offset="0"
         style="stop-color:#000000;stop-opacity:1" />
      <stop
         style="stop-color:#ffffff;stop-opacity:1"
         offset="0.11878239"
         id="stop3681" />
      <stop
         style="stop-color:#ffffff;stop-opacity:1"
         offset="0.23756479"
         id="stop3683" />
      <stop
         style="stop-color:#000000;stop-opacity:1"
         offset="0.47315475"
         id="stop3685" />
      <stop
         style="stop-color:#ffffff;stop-opacity:1"
         offset="0.73500365"
         id="stop3687" />
      <stop
         id="stop3689"
         offset="1"
         style="stop-color:#000000;stop-opacity:1" />
    </linearGradient>
    <linearGradient
       id="linearGradient3653">
      <stop
         style="stop-color:#000000;stop-opacity:1"
         offset="0"
         id="stop3655" />
      <stop
         id="stop3675"
         offset="0.18496485"
         style="stop-color:#ffffff;stop-opacity:0" />
      <stop
         id="stop3665"
         offset="0.37378424"
         style="stop-color:#000000;stop-opacity:1" />
      <stop
         id="stop3663"
         offset="0.59195083"
         style="stop-color:#ffffff;stop-opacity:1" />
      <stop
         id="stop3661"
         offset="0.82194692"
         style="stop-color:#000000;stop-opacity:1" />
      <stop
         style="stop-color:#000000;stop-opacity:1"
         offset="1"
         id="stop3657" />
    </linearGradient>
    <linearGradient
       inkscape:collect="always"
       id="linearGradient3645">
      <stop
         style="stop-color:#ffffff;stop-opacity:0"
         offset="0"
         id="stop3647" />
      <stop
         style="stop-color:#ffffff;stop-opacity:1"
         offset="1"
         id="stop3649" />
    </linearGradient>
    <inkscape:path-effect
       effect="spiro"
       id="path-effect3642"
       is_visible="true" />
    <linearGradient
       inkscape:collect="always"
       id="linearGradient3593">
      <stop
         style="stop-color:#000000;stop-opacity:1"
         offset="0"
         id="stop3595" />
      <stop
         style="stop-color:#ff2a2a;stop-opacity:1"
         offset="1"
         id="stop3597" />
    </linearGradient>
    <inkscape:perspective
       sodipodi:type="inkscape:persp3d"
       inkscape:vp_x="0 : 526.18109 : 1"
       inkscape:vp_y="0 : 1000 : 0"
       inkscape:vp_z="744.09448 : 526.18109 : 1"
       inkscape:persp3d-origin="372.04724 : 350.78739 : 1"
       id="perspective10" />
    <linearGradient
       inkscape:collect="always"
       xlink:href="#linearGradient3593"
       id="linearGradient3599"
       x1="243.65193"
       y1="652.24896"
       x2="780.07025"
       y2="295.98203"
       gradientUnits="userSpaceOnUse" />
    <linearGradient
       inkscape:collect="always"
       xlink:href="#linearGradient3645"
       id="linearGradient3651"
       x1="556.42859"
       y1="619.09448"
       x2="927.5"
       y2="361.95163"
       gradientUnits="userSpaceOnUse"
       gradientTransform="translate(2.8571429,296.83913)" />
    <linearGradient
       inkscape:collect="always"
       xlink:href="#linearGradient3741"
       id="linearGradient3659"
       x1="255.00002"
       y1="902.11353"
       x2="960.31653"
       y2="905.55548"
       gradientUnits="userSpaceOnUse" />
    <linearGradient
       inkscape:collect="always"
       xlink:href="#linearGradient3697"
       id="linearGradient3673"
       x1="243.65193"
       y1="652.24896"
       x2="780.07025"
       y2="295.98203"
       gradientUnits="userSpaceOnUse" />
    <linearGradient
       inkscape:collect="always"
       xlink:href="#linearGradient3677"
       id="linearGradient3695"
       gradientUnits="userSpaceOnUse"
       x1="191.79314"
       y1="383.34076"
       x2="915"
       y2="309.09448"
       gradientTransform="matrix(1.0371966,0,0,1.0224967,-21.813107,294.08298)" />
    <linearGradient
       inkscape:collect="always"
       xlink:href="#linearGradient3735"
       id="linearGradient3733"
       x1="260.58121"
       y1="746.6994"
       x2="972.3775"
       y2="746.6994"
       gradientUnits="userSpaceOnUse" />
    <linearGradient
       inkscape:collect="always"
       xlink:href="#linearGradient3645"
       id="linearGradient3766"
       x1="403.03595"
       y1="706.00305"
       x2="910.33777"
       y2="361.71735"
       gradientUnits="userSpaceOnUse" />
    <linearGradient
       inkscape:collect="always"
       xlink:href="#linearGradient3859"
       id="linearGradient3865"
       x1="603.78571"
       y1="313.38019"
       x2="611.92859"
       y2="533.38019"
       gradientUnits="userSpaceOnUse"
       gradientTransform="translate(22.857143,279.69627)" />
    <filter
       inkscape:collect="always"
       id="filter3887"
       x="-0.042476963"
       width="1.0849539"
       y="-0.23609374"
       height="1.4721875"
       color-interpolation-filters="sRGB">
      <feGaussianBlur
         inkscape:collect="always"
         stdDeviation="12.216349"
         id="feGaussianBlur3889" />
    </filter>
    <linearGradient
       inkscape:collect="always"
       xlink:href="#linearGradient3645"
       id="linearGradient3893"
       gradientUnits="userSpaceOnUse"
       gradientTransform="matrix(0.8814593,0,0,0.8814593,109.43967,345.9508)"
       x1="695.5614"
       y1="547.15857"
       x2="927.5"
       y2="361.95163" />
    <filter
       inkscape:collect="always"
       id="filter3911"
       color-interpolation-filters="sRGB">
      <feGaussianBlur
         inkscape:collect="always"
         stdDeviation="7.2283045"
         id="feGaussianBlur3913" />
    </filter>
    <linearGradient
       inkscape:collect="always"
       xlink:href="#linearGradient3677"
       id="linearGradient3925"
       gradientUnits="userSpaceOnUse"
       gradientTransform="matrix(1.0371966,0,0,1.0224967,1.0440359,265.51155)"
       x1="191.79314"
       y1="383.34076"
       x2="915"
       y2="309.09448" />
    <linearGradient
       inkscape:collect="always"
       xlink:href="#linearGradient3593"
       id="linearGradient3927"
       gradientUnits="userSpaceOnUse"
       x1="243.65193"
       y1="652.24896"
       x2="780.07025"
       y2="295.98203"
       gradientTransform="translate(22.857143,279.69627)" />
    <linearGradient
       inkscape:collect="always"
       xlink:href="#linearGradient3697"
       id="linearGradient3929"
       gradientUnits="userSpaceOnUse"
       x1="243.65193"
       y1="652.24896"
       x2="780.07025"
       y2="295.98203"
       gradientTransform="translate(22.857143,279.69627)" />
    <filter
       id="filter7268"
       inkscape:collect="always">
      <feGaussianBlur
         id="feGaussianBlur7270"
         stdDeviation="6.3728165"
         inkscape:collect="always" />
    </filter>
    <inkscape:perspective
       id="perspective3017"
       inkscape:persp3d-origin="203.5 : 99.839996 : 1"
       inkscape:vp_z="407 : 149.75999 : 1"
       inkscape:vp_y="0 : 1000 : 0"
       inkscape:vp_x="0 : 149.75999 : 1"
       sodipodi:type="inkscape:persp3d" />
    <linearGradient
       inkscape:collect="always"
       xlink:href="#linearGradient3645"
       id="linearGradient3079"
       gradientUnits="userSpaceOnUse"
       gradientTransform="matrix(0.8814593,0,0,0.8814593,132.29681,317.37937)"
       x1="695.5614"
       y1="547.15857"
       x2="927.5"
       y2="361.95163" />
    <linearGradient
       inkscape:collect="always"
       xlink:href="#linearGradient3645"
       id="linearGradient3082"
       gradientUnits="userSpaceOnUse"
       x1="403.03595"
       y1="706.00305"
       x2="910.33777"
       y2="361.71735"
       gradientTransform="translate(22.857143,279.69627)" />
    <linearGradient
       inkscape:collect="always"
       xlink:href="#linearGradient3645"
       id="linearGradient3085"
       gradientUnits="userSpaceOnUse"
       gradientTransform="translate(25.714286,268.2677)"
       x1="556.42859"
       y1="619.09448"
       x2="927.5"
       y2="361.95163" />
    <linearGradient
       inkscape:collect="always"
       xlink:href="#linearGradient3735"
       id="linearGradient3088"
       gradientUnits="userSpaceOnUse"
       x1="260.58121"
       y1="746.6994"
       x2="972.3775"
       y2="746.6994"
       gradientTransform="translate(22.857143,-28.571429)" />
    <linearGradient
       inkscape:collect="always"
       xlink:href="#linearGradient3741"
       id="linearGradient3090"
       gradientUnits="userSpaceOnUse"
       x1="255.00002"
       y1="902.11353"
       x2="960.31653"
       y2="905.55548"
       gradientTransform="translate(22.857143,-28.571429)" />
    <inkscape:perspective
       sodipodi:type="inkscape:persp3d"
       inkscape:vp_x="0 : 526.18109 : 1"
       inkscape:vp_y="0 : 1000 : 0"
       inkscape:vp_z="744.09448 : 526.18109 : 1"
       inkscape:persp3d-origin="372.04724 : 350.78739 : 1"
       id="perspective7542" />
    <inkscape:perspective
       id="perspective7156"
       inkscape:persp3d-origin="372.04724 : 350.78739 : 1"
       inkscape:vp_z="744.09448 : 526.18109 : 1"
       inkscape:vp_y="0 : 1000 : 0"
       inkscape:vp_x="0 : 526.18109 : 1"
       sodipodi:type="inkscape:persp3d" />
  </defs>
  <sodipodi:namedview
     id="base"
     pagecolor="#ffffff"
     bordercolor="#666666"
     borderopacity="1.0"
     inkscape:pageopacity="0.0"
     inkscape:pageshadow="2"
     inkscape:zoom="0.49497475"
     inkscape:cx="-88.398837"
     inkscape:cy="442.85583"
     inkscape:document-units="px"
     inkscape:current-layer="layer1"
     showgrid="false"
     inkscape:window-width="1920"
     inkscape:window-height="1005"
     inkscape:window-x="0"
     inkscape:window-y="24"
     inkscape:window-maximized="1"
     inkscape:snap-global="false">
    <inkscape:grid
       type="xygrid"
       id="grid2819"
       empspacing="5"
       visible="true"
       enabled="true"
       snapvisiblegridlinesonly="true" />
  </sodipodi:namedview>
  <metadata
     id="metadata7">
    <rdf:RDF>
      <cc:Work
         rdf:about="">
        <dc:format>image/svg+xml</dc:format>
        <dc:type
           rdf:resource="http://purl.org/dc/dcmitype/StillImage" />
        <dc:title></dc:title>
      </cc:Work>
    </rdf:RDF>
  </metadata>
  <g
     inkscape:label="Capa 1"
     inkscape:groupmode="layer"
     id="layer1"
     transform="translate(-185.41698,-455.33032)">
    <g
       id="g4097">
      <path
         style="fill:#b3b3b3;fill-opacity:1;fill-rule:evenodd;stroke:url(#linearGradient3925);stroke-width:5;stroke-linecap:butt;stroke-linejoin:miter;stroke-miterlimit:4;stroke-opacity:1;stroke-dasharray:none"
         d="m 265.22691,488.11228 141.18804,0.50507 c 31.1159,0 55.58553,28.07707 55.58553,58.75197 l 448.10457,0.21896 c 30.37208,0 53.84899,37.84412 53.84899,67.78574 l -0.0685,359.05805 c -5.56666,22.6354 -7.32218,20.6855 -36.13544,22.7315 l -605.86606,77.07863 c -30.37208,0 -37.74099,1.6499 -42.88525,-27.848 -13.33249,-76.45017 -44.91531,-340.58764 -68.22467,-504.60085 0,-29.94163 24.08074,-53.68107 54.45282,-53.68107 l -3e-5,0 z"
         id="path3691"
         sodipodi:nodetypes="ccccccccsccc" />
      <path
         sodipodi:nodetypes="ccccccccscc"
         id="rect2816"
         d="m 285.35714,506.29075 120,0 c 30,0 52.5,22.5 52.5,52.5 l 449.28572,4.28572 c 29.28286,0 52.85715,23.57428 52.85715,52.85714 l -8.67295,326.91877 c 0,29.28286 4.75203,41.67367 -24.53083,41.67367 l -611.70957,86.98445 c -28.77778,-6.566 -29.20193,-2.5889 -33.93473,-30.2154 -24.33102,-142.02599 -27.86568,-320.61208 -42.23387,-482.50435 0,-29.28286 17.15622,-52.5 46.43908,-52.5 z"
         style="fill:url(#linearGradient3927);fill-opacity:1;fill-rule:evenodd;stroke:url(#linearGradient3929);stroke-width:5;stroke-linecap:butt;stroke-linejoin:miter;stroke-miterlimit:4;stroke-opacity:1;stroke-dasharray:none" />
      <path
         sodipodi:nodetypes="ccccccc"
         id="path3854"
         d="m 425.71525,590.05864 c 184.89974,-0.3245 329.76632,0.26124 501.42625,-0.50102 9.07444,-1.28127 14.51291,1.50332 21.50354,6.90673 27.82771,22.16971 1.30916,34.99867 -11.50219,50.18355 L 285,847.71932 c -1.88034,-9.41708 -24.80868,-215.30576 -25.77266,-226.21012 98.99927,2.41046 175.44325,11.72578 166.48791,-31.45056 z"
         style="fill:url(#linearGradient3865);fill-opacity:1;stroke:#000000;stroke-width:1px;stroke-linecap:butt;stroke-linejoin:miter;stroke-opacity:1;filter:url(#filter3887)" />
      <path
         style="fill:url(#linearGradient3088);fill-opacity:1;fill-rule:evenodd;stroke:url(#linearGradient3090);stroke-width:5;stroke-linecap:butt;stroke-linejoin:miter;stroke-miterlimit:4;stroke-opacity:1;stroke-dasharray:none"
         d="m 457.85714,603.79075 480,0 c 29.28286,0 52.85715,20.81884 52.85715,46.67903 0,0 -23.66578,308.40414 -26.01015,321.35579 -4.06214,22.4417 -4.1261,22.7592 -33.19508,26.2922 l -618.41733,75.16063 c -22.19708,1.4697 -25.74403,-3.8211 -18.07567,-3.7941 20.77471,-70.01473 -6.81644,-279.26463 -17.15892,-413.19355 1.19404,-8.56232 7.85714,-15 15,-15 l 135,0 c 16.46058,-2.50112 26.87016,-19.5257 30,-37.5 z"
         id="path3601"
         sodipodi:nodetypes="cccsscccccc" />
      <path
         sodipodi:nodetypes="ccccccc"
         id="path3640"
         d="m 490.71428,622.36218 412.5,0 c 45,0 70.10153,-3.18275 70.10153,41.81725 l -21.64214,243.18275 c 0,22.5 -20.4797,36.91878 -47.12668,45 l -58.71016,7.38796 C 778.56647,835.20403 710.96985,704.70547 490.71428,622.36218"
         style="opacity:0.753;fill:url(#linearGradient3085);fill-opacity:1;stroke:none" />
      <path
         sodipodi:nodetypes="ccccc"
         id="path3755"
         d="M 315.2504,660.12081 C 605.5653,642.87199 706.59644,845.63409 776.98061,967.85599 L 338.26983,1031.1613 307.19641,671.75384 c -0.2128,-6.10973 2.75388,-11.98253 8.05399,-11.63303 z"
         style="opacity:0.75095783;fill:url(#linearGradient3082);fill-opacity:1;stroke:none" />
      <g
         inkscape:label="Layer 1"
         id="layer1-5"
         transform="matrix(-1,0,0,1,852.88853,602.33723)">
        <path
           style="opacity:0.75;fill:#000000;fill-rule:evenodd;stroke:#000000;stroke-width:1.16684389px;stroke-linecap:butt;stroke-linejoin:miter;stroke-opacity:1;filter:url(#filter7268)"
           d="M 31.103576,341.86054 163.77533,341.48308 C 235.42242,17.594878 367.05427,369.69231 407.63419,83.443192 l -66.48563,2.102747 C 332.24797,288.08646 132.88519,18.740967 31.103576,341.86054 z"
           id="path6285"
           sodipodi:nodetypes="ccccc" />
        <path
           style="fill:#000000;fill-rule:evenodd;stroke:#000000;stroke-width:1.20934379px;stroke-linecap:butt;stroke-linejoin:miter;stroke-opacity:1"
           d="M 5.8189577,327.03817 150.15591,326.13348 C 215.58865,-4.3831455 351.90294,356.73546 393.46676,56.533239 l -75.05521,2.7141 C 311.78003,266.57208 110.56532,-14.376004 5.8189577,327.03817 z"
           id="path2160"
           sodipodi:nodetypes="ccccc"
           sodipodi:insensitive="true" />
        <path
           sodipodi:nodetypes="ccccc"
           id="path2258"
           d="m 12.10536,319.78138 132.67175,-0.37746 C 216.4242,-4.4842856 348.05605,347.61315 388.63597,61.364029 l -66.48563,2.102747 C 313.24975,266.0073 113.88697,-3.3381962 12.10536,319.78138 z"
           style="fill:#ffffff;fill-rule:evenodd;stroke:#000000;stroke-width:1.16684389px;stroke-linecap:butt;stroke-linejoin:miter;stroke-opacity:1" />
        <path
           style="fill:#000000;fill-rule:evenodd;stroke:#000000;stroke-width:1.04906356px;stroke-linecap:butt;stroke-linejoin:miter;stroke-opacity:1"
           d="M 17.868918,321.29587 136.20327,319.96415 C 204.08362,-8.3363434 350.03125,335.87923 384.32801,60.33473 L 326.7326,61.377222 C 315.17873,277.34825 123.33789,-0.23807936 17.868918,321.29587 z"
           id="path2264"
           sodipodi:nodetypes="ccccc"
           sodipodi:insensitive="true" />
        <path
           style="fill:none;stroke:#000000;stroke-width:8;stroke-linecap:butt;stroke-linejoin:miter;stroke-miterlimit:4;stroke-opacity:1;stroke-dasharray:none"
           d="m 319.26427,73.942871 68.41377,-0.485204"
           id="path2272" />
        <use
           x="0"
           y="0"
           xlink:href="#path2272"
           id="use3245"
           transform="translate(-1.9408162,14.070918)"
           width="400"
           height="400" />
        <use
           x="0"
           y="0"
           xlink:href="#use3245"
           id="use3247"
           transform="translate(-3.3964284,14.070918)"
           width="400"
           height="400" />
        <use
           height="400"
           width="400"
           transform="matrix(1.0317485,0,0,1,-18.196009,28.141836)"
           id="use3249"
           xlink:href="#use3245"
           y="0"
           x="0" />
        <use
           x="0"
           y="0"
           xlink:href="#use3245"
           id="use3251"
           transform="matrix(1.0697118,0.01592612,-0.01703852,0.9998732,-36.838644,36.140168)"
           width="400"
           height="400" />
        <path
           style="fill:#000000;fill-rule:evenodd;stroke:#000000;stroke-width:1px;stroke-linecap:butt;stroke-linejoin:miter;stroke-opacity:1"
           d="m 229.98673,145.75307 113.53776,32.99388 5.33723,-4.36684 -109.65612,-29.11224 -9.21887,0.4852 z"
           id="path3275"
           sodipodi:nodetypes="ccccc" />
        <path
           style="fill:#000000;fill-rule:evenodd;stroke:#000000;stroke-width:1px;stroke-linecap:butt;stroke-linejoin:miter;stroke-opacity:1"
           d="m 257.15815,146.23828 100.92245,21.83417 2.91122,-6.06504 -95.5852,-16.25434 -8.24847,0.48521 z"
           id="path3277"
           sodipodi:nodetypes="ccccc" />
        <path
           style="fill:#000000;fill-rule:evenodd;stroke:#000000;stroke-width:1px;stroke-linecap:butt;stroke-linejoin:miter;stroke-opacity:1"
           d="m 279.61923,143.71096 87.72072,8.4209 4.80329,-9.16299 -78.3425,-3.80134 -14.18151,4.54343 z"
           id="path3281"
           sodipodi:nodetypes="ccccc" />
        <path
           style="fill:#000000;fill-rule:evenodd;stroke:#000000;stroke-width:1px;stroke-linecap:butt;stroke-linejoin:miter;stroke-opacity:1"
           d="m 224.16428,147.45128 104.31887,37.84592 8.49107,-1.69822 -107.9579,-36.87551 -4.85204,0.72781 z"
           id="path3283"
           sodipodi:nodetypes="ccccc" />
        <path
           style="fill:#000000;fill-rule:evenodd;stroke:#000000;stroke-width:1px;stroke-linecap:butt;stroke-linejoin:miter;stroke-opacity:1"
           d="m 150.65586,148.9069 93.64439,23.28979 8.97627,-0.2426 -96.0704,-24.5028 -6.55026,1.45561 z"
           id="path3285"
           sodipodi:nodetypes="ccccc" />
        <path
           style="fill:#000000;fill-rule:evenodd;stroke:#000000;stroke-width:1px;stroke-linecap:butt;stroke-linejoin:miter;stroke-opacity:1"
           d="m 179.04029,145.51047 86.85154,28.38444 16.01173,4.36684 -93.64438,-33.47909 -9.21889,0.72781 z"
           id="path3287"
           sodipodi:nodetypes="ccccc" />
        <path
           style="fill:#000000;fill-rule:evenodd;stroke:#000000;stroke-width:1px;stroke-linecap:butt;stroke-linejoin:miter;stroke-opacity:1"
           d="m 203.3005,145.51047 94.85739,35.9051 18.43776,3.15383 -109.17091,-39.30153 -4.12424,0.2426 z"
           id="path3289"
           sodipodi:nodetypes="ccccc" />
        <path
           style="fill:#000000;fill-rule:evenodd;stroke:#000000;stroke-width:1px;stroke-linecap:butt;stroke-linejoin:miter;stroke-opacity:1"
           d="m 231.44234,174.86532 -89.27755,-23.775 -12.1301,3.39642 87.82193,24.74541 13.58572,-4.36683 z"
           id="path3291" />
        <path
           style="fill:#000000;fill-rule:evenodd;stroke:#000000;stroke-width:1px;stroke-linecap:butt;stroke-linejoin:miter;stroke-opacity:1"
           d="m 210.57856,184.5694 -88.30714,-27.17143 -13.10051,6.79286 93.15918,25.71581 8.24847,-5.33724 z"
           id="path3293" />
        <path
           id="path3295"
           d="m 195.53723,196.6995 -91.70357,-26.20102 -8.248464,3.88163 91.703564,27.65663 8.24847,-5.33724 z"
           style="fill:#000000;fill-rule:evenodd;stroke:#000000;stroke-width:1px;stroke-linecap:butt;stroke-linejoin:miter;stroke-opacity:1"
           sodipodi:nodetypes="ccccc" />
        <path
           style="fill:#000000;fill-rule:evenodd;stroke:#000000;stroke-width:1px;stroke-linecap:butt;stroke-linejoin:miter;stroke-opacity:1"
           d="m 184.37753,211.25562 -100.437235,-28.14184 -4.852037,6.30766 102.378052,27.65663 2.91122,-5.82245 z"
           id="path3297"
           sodipodi:nodetypes="ccccc" />
        <path
           style="fill:#000000;fill-rule:evenodd;stroke:#000000;stroke-width:1px;stroke-linecap:butt;stroke-linejoin:miter;stroke-opacity:1"
           d="m 70.35459,200.09592 103.34847,27.65663 -1.45561,8.24848 -109.170922,-30.08266 7.278062,-5.82245 z"
           id="path2184"
           sodipodi:nodetypes="ccccc" />
        <path
           style="fill:#000000;fill-rule:evenodd;stroke:#000000;stroke-width:1px;stroke-linecap:butt;stroke-linejoin:miter;stroke-opacity:1"
           d="m 58.709692,214.65204 107.715298,33.96429 -3.39642,10.67449 -109.170918,-36.39031 4.85204,-8.24847 z"
           id="path2186"
           sodipodi:nodetypes="ccccc" />
        <path
           id="path2188"
           d="m 46.094387,235.51582 110.141313,36.3903 -2.42602,10.18929 -113.052538,-39.30153 5.337245,-7.27806 z"
           style="fill:#000000;fill-rule:evenodd;stroke:#000000;stroke-width:1px;stroke-linecap:butt;stroke-linejoin:miter;stroke-opacity:1"
           sodipodi:nodetypes="ccccc" />
        <path
           style="fill:#000000;fill-rule:evenodd;stroke:#000000;stroke-width:1px;stroke-linecap:butt;stroke-linejoin:miter;stroke-opacity:1"
           d="m 34.449489,254.92397 c 38.816323,14.07092 77.632641,35.97153 116.448971,42.21276 L 149.92805,304.9 C 102.05883,297.07999 71.001527,278.05203 31.538265,264.62805 l 2.911224,-9.70408 z"
           id="path2190"
           sodipodi:nodetypes="ccccc" />
        <path
           sodipodi:nodetypes="ccccc"
           id="path2192"
           d="m 26.20102,276.27295 c 40.110201,13.90918 71.690779,36.34799 120.3306,41.72755 l 0,3.88164 -124.212232,-35.4199 3.881632,-10.18929 z"
           style="fill:#000000;fill-rule:evenodd;stroke:#000000;stroke-width:1px;stroke-linecap:butt;stroke-linejoin:miter;stroke-opacity:1" />
        <path
           style="fill:#000000;fill-rule:evenodd;stroke:#000000;stroke-width:1px;stroke-linecap:butt;stroke-linejoin:miter;stroke-opacity:1"
           d="m 17.95255,297.13673 87.82193,20.37858 0.48521,3.88163 -92.188772,-14.55612 3.881632,-9.70409 z"
           id="path2194"
           sodipodi:nodetypes="ccccc" />
        <path
           style="fill:none;stroke:#ffffff;stroke-width:1px;stroke-linecap:butt;stroke-linejoin:miter;stroke-opacity:0.94117647"
           d="m 23.774999,320.42653 109.170911,-0.9704 c 2.55624,-19.53421 6.36953,-34.04027 10.18929,-48.52041 L 43.668366,267.53929 C 36.119,281.49539 30.097508,301.563 23.774999,320.42653 z"
           id="path2196"
           sodipodi:nodetypes="ccccc" />
        <path
           id="path3170"
           d="m 47.549998,260.26123 97.526012,2.91123 c 4.90665,-16.7931 11.94077,-32.52247 19.40817,-48.03521 l -85.395917,-7.27806 c -17.609235,23.67677 -23.878172,37.43077 -31.538265,52.40204 z"
           style="fill:none;stroke:#ffffff;stroke-width:1px;stroke-linecap:butt;stroke-linejoin:miter;stroke-opacity:0.94117647"
           sodipodi:nodetypes="ccccc" />
        <path
           sodipodi:nodetypes="ccccc"
           style="fill:#552200;fill-rule:evenodd;stroke:#ffffff;stroke-width:1px;stroke-linecap:butt;stroke-linejoin:miter;stroke-opacity:0.94117647"
           d="m 47.549998,260.26123 97.526012,2.91123 c 4.90665,-16.7931 11.94077,-32.52247 19.40817,-48.03521 l -85.395917,-7.27806 c -17.609235,23.67677 -23.878172,37.43077 -31.538265,52.40204 z"
           id="path3172" />
        <path
           id="path3174"
           d="m 81.999487,203.00715 84.425503,7.27806 c 11.69951,-21.15993 28.43771,-31.06685 40.27195,-39.78674 l -62.59133,-9.70408 c -19.06485,5.72422 -50.564398,28.6971 -62.106123,42.21276 z"
           style="fill:#803300;fill-rule:evenodd;stroke:#ffffff;stroke-width:1px;stroke-linecap:butt;stroke-linejoin:miter;stroke-opacity:0.94117647"
           sodipodi:nodetypes="ccccc" />
        <path
           sodipodi:nodetypes="ccccc"
           style="fill:#aa4400;fill-rule:evenodd;stroke:#ffffff;stroke-width:1px;stroke-linecap:butt;stroke-linejoin:miter;stroke-opacity:0.94117647"
           d="m 152.27143,158.36838 58.22448,10.18929 c 21.40359,-6.11861 20.67445,-8.26227 51.43164,-3.88165 l -45.60918,-10.67448 c -19.06485,0.87218 -39.40471,-0.90035 -64.04694,4.36684 z"
           id="path3176" />
        <path
           style="fill:#803300;fill-rule:evenodd;stroke:#ffffff;stroke-width:1px;stroke-linecap:butt;stroke-linejoin:miter;stroke-opacity:1"
           d="m 233.86836,154.00154 51.43163,15.52653 c 32.59365,5.65444 43.16325,5.86615 62.10612,-10.18928 l -48.0352,-15.04133 c -13.87684,9.48689 -33.56536,14.40747 -65.50255,9.70408 z"
           id="path3180"
           sodipodi:nodetypes="ccccc" />
        <path
           style="fill:#552200;fill-rule:evenodd;stroke:#ffffff;stroke-width:1px;stroke-linecap:butt;stroke-linejoin:miter;stroke-opacity:0.94117647"
           d="m 302.76734,141.38623 48.0352,14.55613 c 8.43568,-10.05303 15.57425,-24.1462 19.89336,-40.75714 l -48.5204,-5.82246 c -4.50619,13.59914 -7.49551,19.56882 -19.40816,32.02347 z"
           id="path4151"
           sodipodi:nodetypes="ccccc" />
        <path
           style="fill:#2b1100;fill-rule:evenodd;stroke:#ffffff;stroke-width:1px;stroke-linecap:butt;stroke-linejoin:miter;stroke-opacity:1"
           d="m 323.63111,104.51072 48.52041,4.36684 c 5.09925,-17.850876 6.98908,-31.422511 8.24847,-44.15357 l -50.94643,0.485205 c -0.71653,14.3248 -2.51969,27.56296 -5.82245,39.301525 z"
           id="path5122"
           sodipodi:nodetypes="ccccc" />
      </g>
      <path
         style="opacity:0.753;fill:url(#linearGradient3079);fill-opacity:1;stroke:none;filter:url(#filter3911)"
         d="m 542.17538,629.49925 363.60196,0 c 39.66567,0 61.79165,-2.80547 61.79165,36.8602 l -19.07667,214.3557 c 0,19.83283 -18.05202,32.5424 -41.54025,39.66566 L 855.20146,926.893 C 795.90537,817.11067 736.3217,702.0815 542.17538,629.49925"
         id="path3891"
         sodipodi:nodetypes="ccccccc" />
    </g>
    <rect
       style="fill:#2c2c2c;fill-opacity:1;fill-rule:nonzero;stroke:none"
       id="rect7739"
       width="0"
       height="2.1834431"
       x="724.63092"
       y="614.51904"
       transform="matrix(0,1,-1,0,0,0)" />
  </g>
</svg>
